<?xml version="1.0" encoding="utf-8"?>
<!-- Generator: Adobe Illustrator 24.0.0, SVG Export Plug-In . SVG Version: 6.00 Build 0)  -->
<svg version="1.1" id="Layer_1" xmlns="http://www.w3.org/2000/svg" xmlns:xlink="http://www.w3.org/1999/xlink" x="0px" y="0px"
	 viewBox="0 0 2000 1000" style="enable-background:new 0 0 2000 1000;" xml:space="preserve">
<style type="text/css">
	.st0{clip-path:url(#SVGID_2_);fill:#CAC5C5;}
	.st1{clip-path:url(#SVGID_2_);}
	.st2{clip-path:url(#SVGID_4_);fill:#010202;}
	.st3{clip-path:url(#SVGID_6_);}
	.st4{fill:#010202;}
	
		.st5{clip-path:url(#SVGID_8_);fill:none;stroke:#010202;stroke-width:0.2;stroke-linecap:round;stroke-linejoin:round;stroke-dasharray:0,0.6;}
	.st6{clip-path:url(#SVGID_8_);fill:none;stroke:#010202;stroke-width:0.2;stroke-linecap:round;stroke-linejoin:round;}
	.st7{clip-path:url(#SVGID_10_);}
	.st8{clip-path:url(#SVGID_12_);}
	.st9{clip-path:url(#SVGID_16_);}
	.st10{clip-path:url(#SVGID_20_);}
	.st11{clip-path:url(#SVGID_6_);fill:#010202;}
	.st12{clip-path:url(#SVGID_24_);}
	.st13{clip-path:url(#SVGID_28_);}
	.st14{clip-path:url(#SVGID_32_);}
	
		.st15{clip-path:url(#SVGID_34_);fill:none;stroke:#010202;stroke-width:0.2;stroke-linecap:round;stroke-linejoin:round;stroke-dasharray:0,0.6;}
	.st16{clip-path:url(#SVGID_34_);fill:none;stroke:#010202;stroke-width:0.2;stroke-linecap:round;stroke-linejoin:round;}
	.st17{clip-path:url(#SVGID_36_);}
	.st18{clip-path:url(#SVGID_32_);fill:#010202;}
	.st19{clip-path:url(#SVGID_38_);}
	.st20{clip-path:url(#SVGID_42_);}
	.st21{clip-path:url(#SVGID_46_);}
	.st22{clip-path:url(#SVGID_50_);}
	
		.st23{clip-path:url(#SVGID_52_);fill:none;stroke:#010202;stroke-width:0.2;stroke-linecap:round;stroke-linejoin:round;stroke-dasharray:0,0.6;}
	.st24{clip-path:url(#SVGID_52_);fill:none;stroke:#010202;stroke-width:0.2;stroke-linecap:round;stroke-linejoin:round;}
	.st25{clip-path:url(#SVGID_54_);}
	.st26{clip-path:url(#SVGID_50_);fill:#010202;}
	.st27{clip-path:url(#SVGID_56_);}
	.st28{clip-path:url(#SVGID_60_);}
	.st29{clip-path:url(#SVGID_64_);}
	.st30{clip-path:url(#SVGID_68_);}
	.st31{clip-path:url(#SVGID_72_);}
	.st32{clip-path:url(#SVGID_76_);}
</style>
<g>
	<g>
		<defs>
			<rect id="SVGID_1_" width="2000" height="1000"/>
		</defs>
		<clipPath id="SVGID_2_">
			<use xlink:href="#SVGID_1_"  style="overflow:visible;"/>
		</clipPath>
		<rect x="1000" class="st0" width="1000" height="1000"/>
		<g class="st1">
			<defs>
				<rect id="SVGID_3_" x="1000" width="1000" height="1000"/>
			</defs>
			<clipPath id="SVGID_4_">
				<use xlink:href="#SVGID_3_"  style="overflow:visible;"/>
			</clipPath>
			<path class="st2" d="M1644.61,385.18h-37.52l-19.93,32.09h37.36l-76.66,122.46l-18.61-29.18l-5.47-8.57l52.73-84.71l19.98-32.09
				h-45.38h-101.83h-45.74l20.06,32.09l53.15,85.05l-4.2,6.62l-20.22,31.85l-75.36-123.52h37.5l-20.33-32.09h-36.74h-40.92
				l19.16,32.09l94.55,158.42l23.36,39.14l22.19-35.66l20.47-32.88l4-6.43l5.44,8.71l18.33,29.33l22.82,36.51
				c7.29-12.22,15.12-25.34,23.54-39.45c25.58-42.88,56.56-94.81,94.07-157.68c6.2-10.4,12.58-21.09,19.15-32.09H1644.61z
				 M1469.74,417.27h60.98l-30.42,47.92L1469.74,417.27z"/>
		</g>
	</g>
</g>
</svg>
